<?xml version="1.0" encoding="UTF-8" standalone="no"?>
<!-- Created with Inkscape (http://www.inkscape.org/) -->

<svg
   width="29.999956mm"
   height="29.999908mm"
   viewBox="0 0 29.999956 29.999909"
   version="1.1"
   id="svg1"
   xml:space="preserve"
   sodipodi:docname="logo_jm.svg"
   inkscape:version="1.4 (1:1.4+202410161351+e7c3feb100)"
   xmlns:inkscape="http://www.inkscape.org/namespaces/inkscape"
   xmlns:sodipodi="http://sodipodi.sourceforge.net/DTD/sodipodi-0.dtd"
   xmlns="http://www.w3.org/2000/svg"
   xmlns:svg="http://www.w3.org/2000/svg"><sodipodi:namedview
     id="namedview1"
     pagecolor="#505050"
     bordercolor="#eeeeee"
     borderopacity="1"
     inkscape:showpageshadow="0"
     inkscape:pageopacity="0"
     inkscape:pagecheckerboard="0"
     inkscape:deskcolor="#505050"
     inkscape:document-units="mm"
     showgrid="true"
     inkscape:zoom="1.4142136"
     inkscape:cx="134.35029"
     inkscape:cy="4.2426407"
     inkscape:window-width="1536"
     inkscape:window-height="795"
     inkscape:window-x="0"
     inkscape:window-y="0"
     inkscape:window-maximized="1"
     inkscape:current-layer="layer1"><inkscape:grid
       id="grid1"
       units="mm"
       originx="-4.3192293e-05"
       originy="-4.4737761e-05"
       spacingx="0.99999998"
       spacingy="1"
       empcolor="#0099e5"
       empopacity="0.30196078"
       color="#0099e5"
       opacity="0.14901961"
       empspacing="5"
       enabled="true"
       visible="true" /></sodipodi:namedview><defs
     id="defs1" /><g
     inkscape:label="Layer 1"
     inkscape:groupmode="layer"
     id="layer1"
     transform="translate(-4.3192292e-5,-4.4737761e-5)"><g
       id="g4"
       style="display:inline"
       transform="matrix(29.233851,0,0,29.233851,-0.00121963,-0.00126313)"><path
         id="path1"
         style="display:inline;opacity:1;fill:#ffffff;fill-opacity:1;stroke:#000000;stroke-width:0.0515869;stroke-linecap:butt;stroke-miterlimit:2.2;stroke-dasharray:none;stroke-dashoffset:0;stroke-opacity:1;paint-order:normal"
         d="M 0.99270426,0.59737956 A 0.57996696,0.24749674 0 0 1 0.79581706,0.67437744 0.57996696,0.24749674 0 0 1 0.20877279,0.66869303 0.57996696,0.24749674 0 0 1 0.03410644,0.59737956 0.48743567,0.48743567 0 0 0 0.51314697,1.0004557 0.48743567,0.48743567 0 0 0 0.99270426,0.59737956 Z" /><path
         d="m 0.99580485,0.45061849 a 0.57996696,0.24749674 0 0 1 -0.19998779,0.0800985 0.57996696,0.24749674 0 0 1 -0.58704427,-0.005684 0.57996696,0.24749674 0 0 1 -0.17828369,-0.0738973 0.48743567,0.48743567 0 0 0 -0.0046509,0.0620117 0.48743567,0.48743567 0 0 0 0.0082682,0.0842326 0.57996696,0.24749674 0 0 0 0.17466634,0.0713135 0.57996696,0.24749674 0 0 0 0.58704427,0.005684 0.57996696,0.24749674 0 0 0 0.1968872,-0.0769979 0.48743567,0.48743567 0 0 0 0.007751,-0.0842326 0.48743567,0.48743567 0 0 0 -0.00465,-0.0625285 z"
         style="display:inline;opacity:1;fill:#ff0000;stroke:#000000;stroke-width:0.0515869;stroke-miterlimit:2.2"
         id="path8" /><path
         d="M 0.51314697,0.02583822 A 0.48743567,0.48743567 0 0 0 0.0304891,0.45113525 0.57996696,0.24749674 0 0 0 0.20877279,0.52503255 0.57996696,0.24749674 0 0 0 0.79581706,0.53071696 0.57996696,0.24749674 0 0 0 0.99580485,0.45061849 0.48743567,0.48743567 0 0 0 0.51314697,0.02583822 Z"
         style="display:inline;opacity:1;fill:#ffffff;stroke:#000000;stroke-width:0.0515869;stroke-miterlimit:2.2"
         id="path7" /></g></g></svg>
